<svg xmlns="http://www.w3.org/2000/svg" xmlns:xlink="http://www.w3.org/1999/xlink" width="250" zoomAndPan="magnify" viewBox="0 0 187.5 74.999997" height="100" preserveAspectRatio="xMidYMid meet" version="1.0"><defs><g/><clipPath id="7beddc21e4"><path d="M 0 0.101562 L 187 0.101562 L 187 74.898438 L 0 74.898438 Z M 0 0.101562 " clip-rule="nonzero"/></clipPath></defs><g clip-path="url(#7beddc21e4)"><path fill="#ffffff" d="M 0 0.101562 L 187 0.101562 L 187 74.898438 L 0 74.898438 Z M 0 0.101562 " fill-opacity="1" fill-rule="nonzero"/><path fill="#ffffff" d="M 0 0.101562 L 187 0.101562 L 187 74.898438 L 0 74.898438 Z M 0 0.101562 " fill-opacity="1" fill-rule="nonzero"/></g><g fill="#0097b2" fill-opacity="1"><g transform="translate(2.594616, 50.679435)"><g><path d="M 20.015625 -16.09375 L 20.015625 -25.796875 L 25.09375 -25.796875 L 25.09375 0 L 20.015625 0 L 20.015625 -11.75 L 8.453125 -11.75 L 8.453125 0 L 3.359375 0 L 3.359375 -25.796875 L 8.453125 -25.796875 L 8.453125 -16.09375 Z M 20.015625 -16.09375 "/></g></g></g><g fill="#0097b2" fill-opacity="1"><g transform="translate(31.056825, 50.679435)"><g><path d="M 8.453125 0 L 3.359375 0 L 3.359375 -25.796875 L 8.453125 -25.796875 Z M 8.453125 0 "/></g></g></g><g fill="#0097b2" fill-opacity="1"><g transform="translate(42.879317, 50.679435)"><g><path d="M 20.6875 -25.796875 L 20.6875 -21.515625 L 13.234375 -21.515625 L 13.234375 0 L 8.15625 0 L 8.15625 -21.515625 L 0.703125 -21.515625 L 0.703125 -25.796875 Z M 20.6875 -25.796875 "/></g></g></g><g fill="#ff751f" fill-opacity="1"><g transform="translate(61.944161, 50.679435)"><g><path d="M 9.109375 0.375 C 7.773438 0.375 6.554688 0.21875 5.453125 -0.09375 C 4.347656 -0.40625 3.40625 -0.832031 2.625 -1.375 C 1.84375 -1.925781 1.257812 -2.554688 0.875 -3.265625 L 3.59375 -6.1875 L 3.96875 -6.1875 C 4.613281 -5.320312 5.378906 -4.671875 6.265625 -4.234375 C 7.148438 -3.796875 8.109375 -3.578125 9.140625 -3.578125 C 10.097656 -3.578125 10.816406 -3.75 11.296875 -4.09375 C 11.773438 -4.4375 12.015625 -4.925781 12.015625 -5.5625 C 12.015625 -6.050781 11.835938 -6.460938 11.484375 -6.796875 C 11.140625 -7.140625 10.582031 -7.40625 9.8125 -7.59375 L 7.234375 -8.203125 C 5.304688 -8.660156 3.894531 -9.363281 3 -10.3125 C 2.113281 -11.257812 1.671875 -12.460938 1.671875 -13.921875 C 1.671875 -15.128906 1.976562 -16.179688 2.59375 -17.078125 C 3.21875 -17.972656 4.09375 -18.65625 5.21875 -19.125 C 6.34375 -19.59375 7.648438 -19.828125 9.140625 -19.828125 C 10.890625 -19.828125 12.34375 -19.570312 13.5 -19.0625 C 14.65625 -18.5625 15.554688 -17.890625 16.203125 -17.046875 L 13.59375 -14.21875 L 13.234375 -14.21875 C 12.691406 -14.832031 12.082031 -15.28125 11.40625 -15.5625 C 10.726562 -15.84375 9.972656 -15.984375 9.140625 -15.984375 C 7.210938 -15.984375 6.25 -15.382812 6.25 -14.1875 C 6.25 -13.675781 6.425781 -13.257812 6.78125 -12.9375 C 7.144531 -12.625 7.78125 -12.367188 8.6875 -12.171875 L 11.078125 -11.640625 C 13.054688 -11.222656 14.5 -10.546875 15.40625 -9.609375 C 16.320312 -8.671875 16.78125 -7.414062 16.78125 -5.84375 C 16.78125 -4.601562 16.472656 -3.515625 15.859375 -2.578125 C 15.253906 -1.640625 14.375 -0.910156 13.21875 -0.390625 C 12.0625 0.117188 10.691406 0.375 9.109375 0.375 Z M 9.109375 0.375 "/></g></g></g><g fill="#000000" fill-opacity="1"><g transform="translate(79.896287, 50.679435)"><g/></g></g><g fill="#ff751f" fill-opacity="1"><g transform="translate(88.428223, 50.679435)"><g><path d="M 8.296875 0 L 3.359375 0 L 3.359375 -25.796875 L 9.1875 -25.796875 L 19.546875 -9.171875 L 20.015625 -9.25 L 20.015625 -25.796875 L 24.921875 -25.796875 L 24.921875 0 L 19.6875 0 L 8.734375 -17.75 L 8.296875 -17.6875 Z M 8.296875 0 "/></g></g></g><g fill="#0097b2" fill-opacity="1"><g transform="translate(116.723864, 50.679435)"><g><path d="M 19.234375 -8.625 L 6.71875 -8.625 C 6.863281 -6.9375 7.347656 -5.707031 8.171875 -4.9375 C 8.992188 -4.164062 10.117188 -3.78125 11.546875 -3.78125 C 12.660156 -3.78125 13.5625 -3.988281 14.25 -4.40625 C 14.945312 -4.820312 15.507812 -5.453125 15.9375 -6.296875 L 16.3125 -6.296875 L 19.546875 -4.21875 C 18.910156 -2.851562 17.953125 -1.742188 16.671875 -0.890625 C 15.390625 -0.046875 13.679688 0.375 11.546875 0.375 C 9.523438 0.375 7.78125 -0.00390625 6.3125 -0.765625 C 4.851562 -1.535156 3.726562 -2.675781 2.9375 -4.1875 C 2.144531 -5.695312 1.75 -7.539062 1.75 -9.71875 C 1.75 -11.9375 2.164062 -13.800781 3 -15.3125 C 3.832031 -16.832031 4.957031 -17.960938 6.375 -18.703125 C 7.800781 -19.453125 9.40625 -19.828125 11.1875 -19.828125 C 13.9375 -19.828125 16.046875 -19.097656 17.515625 -17.640625 C 18.984375 -16.179688 19.71875 -14.039062 19.71875 -11.21875 C 19.71875 -10.195312 19.679688 -9.40625 19.609375 -8.84375 Z M 15.03125 -11.78125 C 14.988281 -13.269531 14.644531 -14.351562 14 -15.03125 C 13.363281 -15.707031 12.425781 -16.046875 11.1875 -16.046875 C 8.71875 -16.046875 7.265625 -14.625 6.828125 -11.78125 Z M 15.03125 -11.78125 "/></g></g></g><g fill="#0097b2" fill-opacity="1"><g transform="translate(137.880831, 50.679435)"><g><path d="M 10.453125 0 L 5.328125 0 L 0.703125 -19.46875 L 5.234375 -19.46875 L 8.09375 -6.296875 L 8.46875 -6.296875 L 12.171875 -19.46875 L 16.40625 -19.46875 L 20.234375 -6.296875 L 20.609375 -6.296875 L 23.359375 -19.46875 L 27.78125 -19.46875 L 23.203125 0 L 18.078125 0 L 14.375 -13.25 L 14.015625 -13.25 Z M 10.453125 0 "/></g></g></g><g fill="#ff751f" fill-opacity="1"><g transform="translate(166.454524, 50.679435)"><g><path d="M 9.109375 0.375 C 7.773438 0.375 6.554688 0.21875 5.453125 -0.09375 C 4.347656 -0.40625 3.40625 -0.832031 2.625 -1.375 C 1.84375 -1.925781 1.257812 -2.554688 0.875 -3.265625 L 3.59375 -6.1875 L 3.96875 -6.1875 C 4.613281 -5.320312 5.378906 -4.671875 6.265625 -4.234375 C 7.148438 -3.796875 8.109375 -3.578125 9.140625 -3.578125 C 10.097656 -3.578125 10.816406 -3.75 11.296875 -4.09375 C 11.773438 -4.4375 12.015625 -4.925781 12.015625 -5.5625 C 12.015625 -6.050781 11.835938 -6.460938 11.484375 -6.796875 C 11.140625 -7.140625 10.582031 -7.40625 9.8125 -7.59375 L 7.234375 -8.203125 C 5.304688 -8.660156 3.894531 -9.363281 3 -10.3125 C 2.113281 -11.257812 1.671875 -12.460938 1.671875 -13.921875 C 1.671875 -15.128906 1.976562 -16.179688 2.59375 -17.078125 C 3.21875 -17.972656 4.09375 -18.65625 5.21875 -19.125 C 6.34375 -19.59375 7.648438 -19.828125 9.140625 -19.828125 C 10.890625 -19.828125 12.34375 -19.570312 13.5 -19.0625 C 14.65625 -18.5625 15.554688 -17.890625 16.203125 -17.046875 L 13.59375 -14.21875 L 13.234375 -14.21875 C 12.691406 -14.832031 12.082031 -15.28125 11.40625 -15.5625 C 10.726562 -15.84375 9.972656 -15.984375 9.140625 -15.984375 C 7.210938 -15.984375 6.25 -15.382812 6.25 -14.1875 C 6.25 -13.675781 6.425781 -13.257812 6.78125 -12.9375 C 7.144531 -12.625 7.78125 -12.367188 8.6875 -12.171875 L 11.078125 -11.640625 C 13.054688 -11.222656 14.5 -10.546875 15.40625 -9.609375 C 16.320312 -8.671875 16.78125 -7.414062 16.78125 -5.84375 C 16.78125 -4.601562 16.472656 -3.515625 15.859375 -2.578125 C 15.253906 -1.640625 14.375 -0.910156 13.21875 -0.390625 C 12.0625 0.117188 10.691406 0.375 9.109375 0.375 Z M 9.109375 0.375 "/></g></g></g></svg>